<?xml version="1.0" encoding="utf-8"?>
<!-- Generator: Adobe Illustrator 26.0.3, SVG Export Plug-In . SVG Version: 6.00 Build 0)  -->
<svg version="1.1" xmlns="http://www.w3.org/2000/svg" xmlns:xlink="http://www.w3.org/1999/xlink" x="0px" y="0px"
	 viewBox="0 0 54 54" style="enable-background:new 0 0 54 54;" xml:space="preserve">
<style type="text/css">
	.st0{fill:none;}
	.st1{fill:#FFFFFF;}
	.st2{fill:#333333;}
	.st3{fill:#E0E0E0;}
	.st4{fill:none;stroke:#FF0000;stroke-width:2;stroke-miterlimit:10;}
	.st5{fill:#383838;}
</style>
<g id="Frame">
	<rect id="BG" class="st0" width="54" height="54"/>
</g>
<g id="Indicator">
	<g id="fill">
		<g id="fillBG">
			<rect class="st1" width="36" height="36"/>
		</g>
		<g id="fillMulti_00000140714878421665993590000008020421024871996825_">
			<g id="fillBGLock">
				<rect x="0.5" y="0.5" class="st2" width="35" height="35"/>
				<g>
					<path d="M35,1v34H1V1H35 M36,0H0v36h36V0L36,0z"/>
				</g>
			</g>
			<path id="_x3F_" class="st3" d="M17,19.4V19c0-0.5,0.1-1,0.2-1.3c0.2-0.3,0.5-0.7,0.9-1.1c0.6-0.5,1-0.9,1.2-1.2
				c0.2-0.3,0.2-0.6,0.2-1c0-0.5-0.2-0.8-0.5-1.1c-0.3-0.3-0.7-0.4-1.3-0.4c-0.4,0-0.7,0-1.1,0.1c-0.3,0.1-0.7,0.2-1.2,0.5l-0.4-0.9
				c0.9-0.5,1.8-0.7,2.7-0.7c0.9,0,1.6,0.2,2.1,0.6s0.7,1,0.7,1.8c0,0.3,0,0.6-0.1,0.9c-0.1,0.3-0.2,0.5-0.4,0.7
				c-0.2,0.2-0.6,0.6-1.1,1.1c-0.5,0.4-0.8,0.7-0.9,1c-0.1,0.3-0.2,0.6-0.2,1.1v0.2H17z M16.6,21.4c0-0.6,0.3-0.9,0.8-0.9
				c0.3,0,0.5,0.1,0.6,0.2c0.1,0.2,0.2,0.4,0.2,0.7c0,0.3-0.1,0.5-0.2,0.7c-0.1,0.2-0.4,0.2-0.6,0.2c-0.2,0-0.4-0.1-0.6-0.2
				C16.7,22,16.6,21.7,16.6,21.4z"/>
		</g>
		<line id="fillNone" class="st4" x1="0.7" y1="35.3" x2="35.3" y2="0.7"/>
		<g id="fillFrame">
			<path d="M35,1v34H1V1H35 M36,0H0v36h36V0L36,0z"/>
		</g>
	</g>
	<g id="stroke">
		<g id="strokeBG">
			<rect x="18.5" y="18.5" class="st1" width="35" height="35"/>
			<path d="M53,19v34H19V19H53 M54,18H18v36h36V18L54,18z"/>
		</g>
		<g id="strokeMulti_00000025406553374394856420000012195282820689614768_">
			<g id="strokeBGLock">
				<rect x="18.5" y="18.5" class="st2" width="35" height="35"/>
				<g>
					<path d="M53,19v34H19V19H53 M54,18H18v36h36V18L54,18z"/>
				</g>
			</g>
			<g id="_x3F__00000078026555349427796820000001742698723664755885_">
				<path class="st3" d="M22.9,25v-0.2c0-0.3,0-0.6,0.1-0.8c0.1-0.2,0.3-0.4,0.5-0.6c0.4-0.3,0.6-0.5,0.7-0.7
					c0.1-0.2,0.1-0.3,0.1-0.6c0-0.3-0.1-0.5-0.3-0.6c-0.2-0.1-0.4-0.2-0.7-0.2c-0.2,0-0.4,0-0.6,0.1c-0.2,0-0.4,0.1-0.7,0.3
					l-0.2-0.5c0.5-0.3,1-0.4,1.6-0.4c0.5,0,0.9,0.1,1.2,0.4s0.4,0.6,0.4,1c0,0.2,0,0.4-0.1,0.5c-0.1,0.1-0.1,0.3-0.2,0.4
					c-0.1,0.1-0.3,0.3-0.6,0.6c-0.3,0.2-0.4,0.4-0.5,0.6c-0.1,0.1-0.1,0.3-0.1,0.6V25H22.9z M22.7,26.1c0-0.4,0.2-0.5,0.5-0.5
					c0.2,0,0.3,0,0.4,0.1c0.1,0.1,0.1,0.2,0.1,0.4c0,0.2,0,0.3-0.1,0.4c-0.1,0.1-0.2,0.1-0.3,0.1c-0.1,0-0.2,0-0.3-0.1
					S22.7,26.3,22.7,26.1z"/>
				<path class="st3" d="M48,25v-0.2c0-0.3,0-0.6,0.1-0.8c0.1-0.2,0.3-0.4,0.5-0.6c0.4-0.3,0.6-0.5,0.7-0.7c0.1-0.2,0.1-0.3,0.1-0.6
					c0-0.3-0.1-0.5-0.3-0.6c-0.2-0.1-0.4-0.2-0.7-0.2c-0.2,0-0.4,0-0.6,0.1c-0.2,0-0.4,0.1-0.7,0.3L47,21.1c0.5-0.3,1-0.4,1.6-0.4
					c0.5,0,0.9,0.1,1.2,0.4s0.4,0.6,0.4,1c0,0.2,0,0.4-0.1,0.5c-0.1,0.1-0.1,0.3-0.2,0.4c-0.1,0.1-0.3,0.3-0.6,0.6
					c-0.3,0.2-0.4,0.4-0.5,0.6c-0.1,0.1-0.1,0.3-0.1,0.6V25H48z M47.8,26.1c0-0.4,0.2-0.5,0.5-0.5c0.2,0,0.3,0,0.4,0.1
					c0.1,0.1,0.1,0.2,0.1,0.4c0,0.2,0,0.3-0.1,0.4c-0.1,0.1-0.2,0.1-0.3,0.1c-0.1,0-0.2,0-0.3-0.1S47.8,26.3,47.8,26.1z"/>
				<path class="st3" d="M22.9,49.7v-0.2c0-0.3,0-0.6,0.1-0.8c0.1-0.2,0.3-0.4,0.5-0.6c0.4-0.3,0.6-0.5,0.7-0.7
					c0.1-0.2,0.1-0.3,0.1-0.6c0-0.3-0.1-0.5-0.3-0.6C24,46.1,23.7,46,23.4,46c-0.2,0-0.4,0-0.6,0.1c-0.2,0-0.4,0.1-0.7,0.3l-0.2-0.5
					c0.5-0.3,1-0.4,1.6-0.4c0.5,0,0.9,0.1,1.2,0.4s0.4,0.6,0.4,1c0,0.2,0,0.4-0.1,0.5c-0.1,0.1-0.1,0.3-0.2,0.4
					c-0.1,0.1-0.3,0.3-0.6,0.6c-0.3,0.2-0.4,0.4-0.5,0.6c-0.1,0.1-0.1,0.3-0.1,0.6v0.1H22.9z M22.7,50.9c0-0.4,0.2-0.5,0.5-0.5
					c0.2,0,0.3,0,0.4,0.1c0.1,0.1,0.1,0.2,0.1,0.4c0,0.2,0,0.3-0.1,0.4c-0.1,0.1-0.2,0.1-0.3,0.1c-0.1,0-0.2,0-0.3-0.1
					S22.7,51.1,22.7,50.9z"/>
				<path class="st3" d="M48,49.7v-0.2c0-0.3,0-0.6,0.1-0.8c0.1-0.2,0.3-0.4,0.5-0.6c0.4-0.3,0.6-0.5,0.7-0.7
					c0.1-0.2,0.1-0.3,0.1-0.6c0-0.3-0.1-0.5-0.3-0.6c-0.2-0.1-0.4-0.2-0.7-0.2c-0.2,0-0.4,0-0.6,0.1c-0.2,0-0.4,0.1-0.7,0.3L47,45.9
					c0.5-0.3,1-0.4,1.6-0.4c0.5,0,0.9,0.1,1.2,0.4s0.4,0.6,0.4,1c0,0.2,0,0.4-0.1,0.5c-0.1,0.1-0.1,0.3-0.2,0.4
					c-0.1,0.1-0.3,0.3-0.6,0.6c-0.3,0.2-0.4,0.4-0.5,0.6c-0.1,0.1-0.1,0.3-0.1,0.6v0.1H48z M47.8,50.9c0-0.4,0.2-0.5,0.5-0.5
					c0.2,0,0.3,0,0.4,0.1c0.1,0.1,0.1,0.2,0.1,0.4c0,0.2,0,0.3-0.1,0.4c-0.1,0.1-0.2,0.1-0.3,0.1c-0.1,0-0.2,0-0.3-0.1
					S47.8,51.1,47.8,50.9z"/>
			</g>
		</g>
		<g id="strokeGapLock">
			<rect x="28.1" y="28.1" class="st5" width="15.8" height="15.8"/>
			<path d="M43.4,28.6v14.8H28.6V28.6H43.4 M44.4,27.6H27.6v16.8h16.8V27.6L44.4,27.6z"/>
		</g>
		<line id="strokeNone" class="st4" x1="18.7" y1="53.3" x2="53.3" y2="18.7"/>
		<g id="strokeFrame">
			<path d="M53,19v34H19V19H53 M54,18H18v36h36V18L54,18z"/>
		</g>
	</g>
</g>
</svg>
